<?xml version="1.0" encoding="iso-8859-1"?>
<!-- Generator: Adobe Illustrator 19.0.0, SVG Export Plug-In . SVG Version: 6.00 Build 0)  -->
<svg version="1.1" id="Capa_1" xmlns="http://www.w3.org/2000/svg" xmlns:xlink="http://www.w3.org/1999/xlink" x="0px" y="0px"
	 viewBox="0 0 512 512" style="enable-background:new 0 0 512 512;" xml:space="preserve">
<path style="fill:#FFA8BE;" d="M476.635,337.297c-0.119-15.44-6.217-29.323-15.879-39.878c9.813-11.062,15.352-28.226,15.237-43.119
	c-0.165-21.339-11.529-39.872-28.39-50.372c4.882-8.768,7.855-18.731,7.772-29.471c-0.207-26.779-17.937-51.283-42.222-59.565
	c-0.031-0.295,8.714-26.714-13.254-48.369c-7.608-7.481-17.608-12.554-28.729-13.968c-3.458-9.804-9.403-18.948-17.062-26.268
	c-10.681-10.208-24.701-16.861-40.012-16.742c-7.376,0.057-14.426,1.598-20.932,4.314c-22.725,9.486-38.778,33.385-38.579,59.148
	c-0.136-17.556-7.805-34.132-19.913-45.802c-7.858,7.541-13.896,17.021-17.296,27.155c-11.098,1.586-21.018,6.813-28.509,14.411
	c-21.295,21.651-12.506,48.467-12.505,48.568c-24.154,8.657-41.503,33.432-41.296,60.211c0.083,10.74,3.21,20.656,8.227,29.347
	c-16.697,10.759-27.773,29.466-27.608,50.805c0.115,14.908,5.927,31.978,15.902,42.878c-9.498,10.704-15.38,24.68-15.26,40.119
	c0.143,18.549,8.87,34.862,22.185,45.77c-1.055,4.538-1.759,9.204-1.721,14.074c0.256,33.139,27.346,62.79,60.485,62.534
	c2.27-0.018,4.427-0.454,6.625-0.721c5.161,10.899,13.022,20.259,22.714,27.2c18.697-13.576,30.91-36.259,30.723-60.56
	c0.217,28.094,16.975,53.764,40.951,65.59c9.016,4.447,19.046,6.949,29.611,6.867c14.923-0.115,28.67-4.919,39.924-12.989
	c9.975-7.153,17.992-16.871,23.13-28.17c2.202,0.233,4.365,0.636,6.635,0.619c33.139-0.256,59.767-30.323,59.511-63.462
	c-0.038-4.87-0.814-9.524-1.939-14.045C468.305,372.292,476.778,355.846,476.635,337.297z"/>
<path d="M306,103c5.52,0,10-4.48,10-10s-4.48-10-10-10s-10,4.48-10,10S300.48,103,306,103z"/>
<path d="M206,103c5.52,0,10-4.48,10-10s-4.48-10-10-10s-10,4.48-10,10S200.48,103,206,103z"/>
<path d="M26,339c0,18.616,7.548,36.35,20.899,49.518C40.035,430.01,73.125,472,116,472c0.31,0,0.615-0.005,0.914-0.014
	C131.129,496.508,157.515,512,186,512c29.688,0,56.216-17.82,70-43.494C269.784,494.18,296.312,512,326,512
	c28.485,0,54.871-15.492,69.086-40.014c0.3,0.009,0.604,0.014,0.914,0.014c37.944,0,70-33.43,70-73
	c0-3.369-0.296-6.834-0.899-10.482C478.452,375.35,486,357.617,486,339c0-14.356-4.525-28.329-12.877-40.118
	C481.706,286,486,269.927,486,256c0-20.996-9.327-40.503-25.332-53.731C464.21,193.805,466,185.002,466,176
	c0-27.855-16.256-53.803-40.425-65.92c3.667-30.414-16.151-58.292-45.52-65.403C368.56,18.104,342.975,0,316,0
	c-25.11,0-47.631,14.646-60,36.016C243.63,14.646,221.109,0,196,0c-26.977,0-52.562,18.104-64.055,44.678
	c-29.545,7.156-49.177,35.173-45.52,65.402C62.257,122.196,46,148.145,46,176c0,9.002,1.79,17.805,5.332,26.269
	C35.327,215.498,26,235.004,26,256c0,14,4.33,30.052,12.877,42.881C30.525,310.671,26,324.644,26,339z M316,20
	c17.256,0,31.92,10.624,40.739,23.714c-12.504,1.926-24.042,7.738-33.166,16.851c-3.908,3.903-3.912,10.234-0.009,14.142
	s10.236,3.911,14.142,0.008C345.271,67.161,355.318,63,366,63c21.993,0,40,17.787,40,40c0,0.264-0.02,0.521-0.025,0.784
	C402.678,103.271,399.348,103,396,103c-37.944,0-70,33.43-70,73c0,5.523,4.478,10,10,10s10-4.477,10-10c0-28.233,23.364-53,50-53
	c27.982,0,50,25.997,50,53c0,8.403-2.254,16.639-6.699,24.478c-2.63,4.639-1.157,10.526,3.348,13.38
	C457.271,223.121,466,238.875,466,256c0,28.331-22.941,53-50,53c-5.522,0-10,4.477-10,10s4.478,10,10,10
	c15.75,0,30.669-5.903,42.663-15.729C463.435,321.054,466,329.93,466,339c0,14.671-6.644,28.614-18.227,38.253
	c-2.928,2.436-4.217,6.323-3.326,10.025c1.06,4.403,1.553,8.128,1.553,11.721c0,31.04-28.075,56.126-53.387,52.666
	c-0.703-0.096-1.407-0.191-2.114-0.271c-4.287-0.485-8.388,1.821-10.199,5.726C370.466,478.309,349.151,492,326,492
	c-32.523,0-60-28.851-60-63c0-33.084,26.916-60,60-60c5.522,0,10-4.477,10-10s-4.478-10-10-10c-23.877,0-45.329,10.528-60,27.169
	V186c0-11.028,8.972-20,20-20c5.522,0,10-4.477,10-10s-4.478-10-10-10c-7.283,0-14.112,1.966-20,5.381V73
	C266,44.766,289.364,20,316,20z M69.352,213.858c4.505-2.854,5.978-8.741,3.347-13.38C68.254,192.639,66,184.403,66,176
	c0-26.99,22.002-53,50-53c26.636,0,50,24.767,50,53c0,5.523,4.477,10,10,10s10-4.477,10-10c0-39.57-32.056-73-70-73
	c-3.348,0-6.678,0.271-9.975,0.784C106.02,103.521,106,103.265,106,103c0-22.317,18.117-40,40-40
	c10.682,0,20.73,4.161,28.292,11.715c3.907,3.903,10.238,3.899,14.142-0.007c3.903-3.908,3.9-10.239-0.007-14.142
	c-9.123-9.113-20.662-14.925-33.167-16.851C164.079,30.624,178.744,20,196,20c26.636,0,50,24.766,50,53v78.381
	c-5.888-3.415-12.717-5.381-20-5.381c-5.523,0-10,4.477-10,10s4.477,10,10,10c11.028,0,20,8.972,20,20v190.169
	C231.329,359.528,209.877,349,186,349c-5.523,0-10,4.477-10,10s4.477,10,10,10c33.084,0,60,26.916,60,60c0,34.149-27.477,63-60,63
	c-23.152,0-44.465-13.691-54.299-34.88c-1.813-3.905-5.919-6.208-10.2-5.726c-0.707,0.081-1.41,0.175-2.113,0.271
	c-28.46,3.892-60.51-28.335-51.834-64.387c0.891-3.703-0.399-7.589-3.326-10.025C52.644,367.614,46,353.671,46,339
	c0-9.071,2.565-17.948,7.338-25.732C65.332,323.098,80.251,329,96,329c5.523,0,10-4.477,10-10s-4.477-10-10-10
	c-27.139,0-50-24.77-50-53C46,238.875,54.729,223.121,69.352,213.858z"/>
<path d="M164.6,245.057C160.75,257.185,149.386,266,136,266c-5.523,0-10,4.477-10,10s4.477,10,10,10
	c24.357,0,44.69-17.51,49.102-40.602c13.907-1.819,26.996-7.77,37.565-17.225c4.116-3.682,4.468-10.004,0.786-14.12
	s-10.003-4.468-14.12-0.786C177.265,241.952,126,219.027,126,176c0-5.523-4.477-10-10-10s-10,4.477-10,10
	C106,210.715,131.407,239.595,164.6,245.057z"/>
<path d="M116,389c-5.523,0-10,4.477-10,10s4.477,10,10,10c26.636,0,50,24.767,50,53c0,5.523,4.477,10,10,10s10-4.477,10-10
	C186,422.43,153.944,389,116,389z"/>
<path d="M196,309c-33.886,0-62.98,18.585-78.3,45.608c-2.723,4.805-1.036,10.908,3.768,13.631
	c4.805,2.723,10.907,1.037,13.631-3.768C147.034,343.415,169.68,329,196,329c5.523,0,10-4.477,10-10S201.523,309,196,309z"/>
<path d="M288.547,214.053c-3.683,4.116-3.33,10.438,0.786,14.12c10.569,9.455,23.659,15.406,37.565,17.225
	C331.31,268.49,351.643,286,376,286c5.522,0,10-4.477,10-10s-4.478-10-10-10c-13.386,0-24.75-8.815-28.6-20.943
	C380.593,239.595,406,210.715,406,176c0-5.523-4.478-10-10-10s-10,4.477-10,10c0,27.57-22.43,50-50,50
	c-12.316,0-24.153-4.522-33.333-12.733C298.552,209.585,292.229,209.936,288.547,214.053z"/>
<path d="M396,389c-37.944,0-70,33.43-70,73c0,5.523,4.478,10,10,10s10-4.477,10-10c0-28.233,23.364-53,50-53c5.522,0,10-4.477,10-10
	S401.522,389,396,389z"/>
<path d="M376.899,364.471c2.727,4.811,8.834,6.489,13.631,3.769c4.805-2.723,6.492-8.826,3.77-13.631
	C379.018,327.65,349.964,309,316,309c-5.522,0-10,4.477-10,10s4.478,10,10,10C342.301,329,364.964,343.411,376.899,364.471z"/>
<g>
</g>
<g>
</g>
<g>
</g>
<g>
</g>
<g>
</g>
<g>
</g>
<g>
</g>
<g>
</g>
<g>
</g>
<g>
</g>
<g>
</g>
<g>
</g>
<g>
</g>
<g>
</g>
<g>
</g>
</svg>
