<?xml version="1.0" encoding="iso-8859-1"?>
<!-- Generator: Adobe Illustrator 19.0.0, SVG Export Plug-In . SVG Version: 6.00 Build 0)  -->
<svg version="1.1" id="Layer_1" xmlns="http://www.w3.org/2000/svg" xmlns:xlink="http://www.w3.org/1999/xlink" x="0px" y="0px"
	 viewBox="0 0 512 512" style="enable-background:new 0 0 512 512;" xml:space="preserve">
<path style="fill:#DB5D45;" d="M40.746,451.711c-8.484,0-15.36-6.877-15.36-15.36v-4.778c0-30.312,13.44-59.097,36.292-78.424
	C28.192,331.085,7.68,293.167,7.68,252.442c0-66.209,53.202-120.074,118.595-120.074s118.595,53.865,118.595,120.074
	c0,40.723-20.511,78.643-53.996,100.706c22.852,19.328,36.292,48.112,36.292,78.424v4.778c0,8.483-6.876,15.36-15.36,15.36H40.746z"
	/>
<path style="opacity:0.1;enable-background:new    ;" d="M57.642,436.35v-4.778c0-30.312,13.44-59.097,36.292-78.424
	c-33.486-22.063-53.998-59.982-53.998-100.706c0-60.67,44.676-110.968,102.467-118.959c-5.276-0.73-10.658-1.115-16.128-1.115
	c-65.393,0-118.595,53.865-118.595,120.074c0,40.723,20.512,78.643,53.998,100.706c-22.852,19.327-36.292,48.112-36.292,78.424
	v4.778c0,8.483,6.876,15.36,15.36,15.36h32.256C64.518,451.711,57.642,444.833,57.642,436.35z"/>
<path style="fill:#48587C;" d="M300.196,451.711c-8.484,0-15.36-6.877-15.36-15.36v-4.778c0-30.312,13.44-59.097,36.292-78.424
	c-33.486-22.063-53.999-59.982-53.999-100.706c0-66.209,53.202-120.074,118.596-120.074c65.393,0,118.595,53.865,118.595,120.074
	c0,40.723-20.511,78.643-53.996,100.706c22.852,19.328,36.292,48.112,36.292,78.424v4.778c0,8.483-6.876,15.36-15.36,15.36H300.196z
	"/>
<path style="opacity:0.2;fill:#FFFFFF;enable-background:new    ;" d="M450.324,353.148c33.485-22.063,53.996-59.982,53.996-100.706
	c0-66.209-53.202-120.074-118.595-120.074c-3.691,0-7.338,0.189-10.944,0.528c60.22,5.672,107.522,57.119,107.522,119.546
	c0,40.723-20.511,78.643-53.996,100.706c22.852,19.328,36.292,48.112,36.292,78.424v4.778c0,8.483-6.876,15.36-15.36,15.36h22.016
	c8.484,0,15.36-6.877,15.36-15.36v-4.778C486.616,401.26,473.176,372.476,450.324,353.148z"/>
<path style="fill:#FCB63E;" d="M144.871,451.711c-8.483,0-15.36-6.877-15.36-15.36v-8.279c0-37.573,16.902-73.222,45.567-96.83
	c-41.76-26.852-67.402-73.707-67.402-124.069c0-80.991,65.072-146.881,145.056-146.881c79.985,0,145.057,65.89,145.057,146.881
	c0,50.362-25.641,97.218-67.4,124.069c28.665,23.61,45.568,59.258,45.568,96.83v8.279c0,8.483-6.877,15.36-15.36,15.36H144.871z"/>
<path style="opacity:0.1;enable-background:new    ;" d="M155.979,436.35v-8.279c0-37.573,16.902-73.222,45.567-96.83
	c-41.76-26.852-67.402-73.706-67.402-124.07c0-76.44,57.968-139.418,131.727-146.255c-4.331-0.398-8.708-0.626-13.139-0.626
	c-79.984,0-145.056,65.89-145.056,146.881c0,50.363,25.642,97.218,67.402,124.069c-28.665,23.609-45.567,59.258-45.567,96.83v8.279
	c0,8.483,6.877,15.36,15.36,15.36h26.468C162.856,451.711,155.979,444.833,155.979,436.35z"/>
<path d="M512,252.442c0-70.444-56.647-127.754-126.275-127.754c-1.285,0-2.564,0.026-3.84,0.066
	C354.795,81.435,307.03,52.61,252.732,52.61c-54.285,0-102.04,28.812-129.133,72.112C55.202,126.17,0,182.903,0,252.442
	c0,40.094,18.354,77.345,49.548,101.471c-20.345,20.551-31.842,48.346-31.842,77.659v4.778c0,12.704,10.335,23.04,23.04,23.04
	h104.125h66.935h88.39h60.401h110.659c12.704,0,23.04-10.336,23.04-23.04v-4.778c0-29.312-11.497-57.106-31.842-77.659
	C493.647,329.788,512,292.538,512,252.442z M252.732,67.971c75.75,0,137.377,62.445,137.377,139.201
	c0,23.391-5.915,46.621-17.106,67.178c-11.153,20.49-27.325,37.928-46.768,50.43c-2.063,1.327-3.369,3.56-3.513,6.009
	c-0.144,2.448,0.891,4.819,2.784,6.379c27.182,22.388,42.77,55.521,42.77,90.903v8.279c0,4.235-3.445,7.68-7.68,7.68H144.87
	c-4.235,0-7.68-3.445-7.68-7.68v-8.279c0-35.384,15.589-68.516,42.769-90.903c1.893-1.56,2.929-3.93,2.784-6.379
	c-0.144-2.449-1.45-4.682-3.513-6.009c-19.443-12.502-35.616-29.94-46.769-50.43c-11.191-20.558-17.107-43.788-17.107-67.178
	C115.356,130.415,176.982,67.971,252.732,67.971z M33.066,436.35v-4.778c0-28.069,12.237-54.516,33.572-72.56
	c1.848-1.563,2.852-3.906,2.706-6.322c-0.144-2.417-1.42-4.623-3.441-5.955c-31.649-20.854-50.544-56.103-50.544-94.294
	c0-58.076,43.698-106,99.525-111.797c-9.54,20.161-14.889,42.722-14.889,66.526c0,25.949,6.562,51.718,18.976,74.523
	c10.77,19.784,25.763,37.012,43.701,50.304c-26.073,24.99-40.841,59.468-40.841,96.073v8.279c0,2.692,0.469,5.276,1.321,7.68H40.746
	C36.511,444.03,33.066,440.586,33.066,436.35z M478.936,431.573v4.778c0,4.235-3.445,7.68-7.68,7.68h-88.94
	c0.852-2.404,1.321-4.988,1.321-7.68v-8.279c0-36.603-14.769-71.082-40.843-96.073c17.938-13.292,32.93-30.52,43.7-50.304
	c12.414-22.804,18.975-48.574,18.975-74.523c0-23.996-5.433-46.734-15.119-67.018c59.022,2.466,106.29,51.885,106.29,112.288
	c0,38.191-18.894,73.441-50.542,94.293c-2.021,1.332-3.296,3.538-3.44,5.955c-0.145,2.416,0.858,4.759,2.706,6.322
	C466.7,377.058,478.936,403.505,478.936,431.573z"/>
<path d="M203.196,226.842c-4.241,0-7.68,3.438-7.68,7.68c0,31.906,25.667,57.863,57.216,57.863c31.55,0,57.217-25.957,57.217-57.863
	c0-4.242-3.439-7.68-7.68-7.68c-4.242,0-7.68,3.438-7.68,7.68c0,23.436-18.777,42.503-41.857,42.503s-41.856-19.067-41.856-42.503
	C210.876,230.281,207.438,226.842,203.196,226.842z"/>
<ellipse cx="202.445" cy="183.594" rx="18.014" ry="18.248"/>
<ellipse cx="303.022" cy="183.594" rx="18.012" ry="18.248"/>
<g>
</g>
<g>
</g>
<g>
</g>
<g>
</g>
<g>
</g>
<g>
</g>
<g>
</g>
<g>
</g>
<g>
</g>
<g>
</g>
<g>
</g>
<g>
</g>
<g>
</g>
<g>
</g>
<g>
</g>
</svg>
