<?xml version="1.0" encoding="iso-8859-1"?>
<!-- Generator: Adobe Illustrator 19.0.0, SVG Export Plug-In . SVG Version: 6.00 Build 0)  -->
<svg version="1.1" id="Capa_1" xmlns="http://www.w3.org/2000/svg" xmlns:xlink="http://www.w3.org/1999/xlink" x="0px" y="0px"
	 viewBox="0 0 512 512" style="enable-background:new 0 0 512 512;" xml:space="preserve"
	 height="100%" width="100%" preserveAspectRatio="xMidYMid meet">
<path style="fill:#F8E47C;" d="M235.142,459.862l-90.163,32.062c-29.565,10.513-60.468-11.939-59.605-43.306l2.631-95.659
	c0.393-14.304-4.156-28.306-12.882-39.646l-58.355-75.843c-19.135-24.869-7.331-61.198,22.768-70.071l91.789-27.058
	c13.726-4.046,25.636-12.699,33.725-24.503l54.098-78.936c17.739-25.883,55.938-25.883,73.677,0l54.098,78.936
	c8.089,11.803,20.001,20.457,33.725,24.503l91.789,27.058c30.098,8.872,41.903,45.202,22.768,70.071l-58.355,75.843
	c-8.726,11.34-13.275,25.343-12.882,39.646l2.631,95.659c0.863,31.367-30.04,53.819-59.605,43.306l-90.163-32.062
	C263.347,455.068,248.624,455.068,235.142,459.862z"/>
<g>
	<ellipse style="fill:#E38892;" cx="179.036" cy="241.358" rx="28.392" ry="22.61"/>
	<ellipse style="fill:#E38892;" cx="332.932" cy="241.358" rx="28.392" ry="22.61"/>
</g>
<path style="fill:#495059;" d="M255.986,244.561L255.986,244.561c-11.36,0-20.571-9.209-20.571-20.571v-14.956
	c0-3.101,2.514-5.615,5.615-5.615h29.91c3.101,0,5.615,2.514,5.615,5.615v14.956C276.555,235.352,267.346,244.561,255.986,244.561z"
	/>
<g>
	<path style="opacity:0.15;fill:#C97B00;enable-background:new    ;" d="M457.958,285.879
		c-80.43,16.436-229.009-12.268-370.306,79.864l-2.279,82.876c-0.863,31.367,30.04,53.82,59.605,43.307l90.163-32.062
		c13.482-4.794,28.205-4.794,41.688,0l90.163,32.062c29.565,10.513,60.468-11.939,59.605-43.307l-2.631-95.659
		c-0.393-14.304,4.156-28.306,12.882-39.646L457.958,285.879z"/>
	<path style="opacity:0.15;fill:#C97B00;enable-background:new    ;" d="M232.984,23.83c-5.283,3.17-10.032,7.521-13.838,13.072
		l-54.098,78.936c-8.089,11.803-20.001,20.457-33.725,24.503l-91.789,27.058c-30.098,8.872-41.903,45.202-22.768,70.071
		l58.355,75.843c8.725,11.34,13.275,25.343,12.881,39.646l-2.631,95.659c-0.863,31.367,30.04,53.82,59.605,43.307l90.163-32.062
		c13.482-4.794,28.205-4.794,41.688,0l90.163,32.062c20.345,7.234,41.323-1.142,52.147-17.291
		C98.757,316.128,177.292,111.519,232.984,23.83z"/>
</g>
<path d="M510.344,197.313c-4.024-15.684-14.768-28.37-29.474-34.808c-3.794-1.663-8.218,0.068-9.878,3.863
	c-1.661,3.794,0.068,8.217,3.863,9.878c10.45,4.574,18.089,13.612,20.959,24.795c2.854,11.122,0.465,22.733-6.554,31.855
	l-35.511,46.154c-21.636,4.072-48.217,5.064-78.816,6.196c-54.243,2.007-121.75,4.504-191.025,26.679
	c-3.945,1.263-6.119,5.484-4.856,9.43c1.02,3.185,3.967,5.215,7.141,5.215c0.758,0,1.528-0.116,2.288-0.359
	c67.314-21.547,133.68-24.002,187.006-25.975c24.182-0.895,45.908-1.702,65.045-4.01l-9.628,12.513
	c-9.748,12.669-14.875,28.447-14.436,44.427l2.631,95.659c0.342,12.439-5.236,23.77-15.304,31.084
	c-10.067,7.316-22.567,9.119-34.292,4.949l-90.163-32.062c-15.062-5.355-31.651-5.355-46.713,0l-90.163,32.062
	c-11.725,4.169-24.224,2.367-34.292-4.949c-10.067-7.314-15.646-18.644-15.304-31.084l2.17-78.892
	c19.113-12.191,39.383-22.814,60.341-31.559c3.823-1.595,5.628-5.987,4.033-9.81c-1.595-3.823-5.986-5.628-9.81-4.033
	c-18.66,7.786-36.791,17.013-54.097,27.46c0.163-15.577-4.933-30.893-14.442-43.251l-58.355-75.843
	c-7.588-9.862-9.735-22.307-5.89-34.142c3.846-11.835,12.897-20.642,24.834-24.16l91.789-27.058
	c15.334-4.52,28.755-14.272,37.791-27.457l54.098-78.936c7.035-10.265,18.208-16.153,30.651-16.153
	c12.444,0,23.617,5.887,30.651,16.153l54.098,78.936c9.036,13.186,22.458,22.937,37.791,27.457l63.352,18.676
	c3.971,1.172,8.143-1.1,9.315-5.073c1.171-3.973-1.1-8.144-5.073-9.314l-63.352-18.676c-12.034-3.547-22.567-11.2-29.659-21.549
	L299.01,32.663c-9.73-14.198-25.814-22.673-43.025-22.673s-33.295,8.476-43.025,22.673l-54.098,78.936
	c-7.092,10.348-17.626,18.001-29.659,21.549l-91.79,27.057c-16.509,4.866-29.54,17.545-34.858,33.913s-2.227,34.285,8.267,47.926
	l58.355,75.843c7.65,9.942,11.674,22.326,11.329,34.867l-0.354,12.863c0,0.005,0,0.01,0,0.015l-2.277,82.78
	c-0.474,17.204,7.556,33.514,21.481,43.632c13.925,10.116,31.918,12.714,48.135,6.946l90.163-32.062
	c11.82-4.203,24.841-4.203,36.661,0l90.163,32.062c5.692,2.024,11.6,3.018,17.479,3.018c10.866-0.001,21.62-3.399,30.656-9.964
	c13.925-10.116,21.955-26.428,21.481-43.632l-2.631-95.659c-0.345-12.541,3.678-24.924,11.329-34.867l58.355-75.843
	C511.001,229.239,514.353,212.935,510.344,197.313z M320.686,202.48v12.187c0,4.142,3.358,7.5,7.5,7.5s7.5-3.358,7.5-7.5V202.48
	c0-4.142-3.358-7.5-7.5-7.5S320.686,198.338,320.686,202.48z M270.94,195.921h-29.91c-7.232,0-13.115,5.883-13.115,13.115v14.956
	c0,15.479,12.592,28.071,28.071,28.071s28.071-12.592,28.071-28.071v-14.956C284.057,201.805,278.172,195.921,270.94,195.921z
	 M269.056,223.992c0,7.207-5.863,13.07-13.07,13.07c-7.206,0-13.07-5.863-13.07-13.07v-13.069h26.141V223.992z M176.284,202.48
	v12.187c0,4.142,3.358,7.5,7.5,7.5s7.5-3.358,7.5-7.5V202.48c0-4.142-3.358-7.5-7.5-7.5S176.284,198.338,176.284,202.48z"/>
<g>
</g>
<g>
</g>
<g>
</g>
<g>
</g>
<g>
</g>
<g>
</g>
<g>
</g>
<g>
</g>
<g>
</g>
<g>
</g>
<g>
</g>
<g>
</g>
<g>
</g>
<g>
</g>
<g>
</g>
</svg>
