<svg id="Capa_1" enable-background="new 0 0 512 512" viewBox="0 0 512 512" height="100%" width="100%" preserveAspectRatio="xMidYMid meet" xmlns="http://www.w3.org/2000/svg">
    <g>
        <g>
            <path d="m458.61 504.5h-53.51l-146.42-47.856-151.78 47.856h-53.51c-25.344 0-45.89-20.545-45.89-45.89v-53.51l63.053-150.885-63.053-147.315v-53.51c0-25.345 20.545-45.89 45.89-45.89h53.51l155.77 44.775 142.43-44.775h53.51c25.344 0 45.89 20.545 45.89 45.89v53.51l-44.965 150.22 44.965 147.98v53.51c0 25.345-20.545 45.89-45.89 45.89z" fill="#f6f9f9"/>
            <path d="m405.1 206.3 54.435-23.669 44.965 23.669v99.4l-47.626 27.239-51.774-27.239-26.705-52.933z" fill="#94afe5"/>
            <path d="m405.1 106.9h99.4v99.4h-99.4l-26.705-52.933z" fill="#adc9fa"/>
            <path d="m405.1 305.7h99.4v99.4h-99.4l-26.705-52.933z" fill="#adc9fa"/>
            <path d="m106.9 305.7-54.435 23.669-44.965-23.669v-99.4l47.626-27.239 51.774 27.239 26.705 52.933z" fill="#baabeb"/>
            <path d="m106.9 405.1h-99.4v-99.4h99.4l26.705 52.933z" fill="#ccbaeb"/>
            <path d="m106.9 206.3h-99.4v-99.4h99.4l26.705 52.933z" fill="#ccbaeb"/>
            <path d="m305.7 405.1 23.669 54.435-23.669 44.965h-99.4l-27.239-47.626 27.239-51.774 52.933-26.705z" fill="#c8646d"/>
            <path d="m405.1 405.1v99.4h-99.4v-99.4l52.933-26.705z" fill="#e27f83"/>
            <path d="m206.3 405.1v99.4h-99.4v-99.4l52.933-26.705z" fill="#e27f83"/>
            <path d="m206.3 106.9-23.669-54.435 23.669-44.965h99.4l27.239 47.626-27.239 51.774-52.933 26.705z" fill="#f1cd6b"/>
            <path d="m106.9 106.9v-99.4h99.4v99.4l-52.933 26.705z" fill="#f5dd81"/>
            <path d="m305.7 106.9v-99.4h99.4v99.4l-52.933 26.705z" fill="#f5dd81"/>
            <path d="m106.9 106.9h298.2v298.2h-298.2z" fill="#bfe19f" transform="matrix(0 1 -1 0 512 0)"/>
            <g>
                <g>
                    <path d="m223.25 256.104h-50.889c-13.496 0-24.437-10.941-24.437-24.437v-50.889c0-13.496 10.941-24.437 24.437-24.437h50.889c13.496 0 24.437 10.941 24.437 24.437v50.889c-.001 13.497-10.941 24.437-24.437 24.437z" fill="#f6f9f9"/>
                    <path d="m187.654 256.109h-15.3c-13.49 0-24.43-10.94-24.43-24.44v-50.89c0-13.49 10.94-24.43 24.43-24.43h15.3c-13.5 0-24.44 10.94-24.44 24.43v50.89c0 13.5 10.94 24.44 24.44 24.44z" fill="#dddaec"/>
                </g>
                <g>
                    <path d="m339.639 355.654h-50.889c-13.496 0-24.437-10.941-24.437-24.437v-50.889c0-13.496 10.941-24.437 24.437-24.437h50.889c13.496 0 24.437 10.941 24.437 24.437v50.889c0 13.496-10.941 24.437-24.437 24.437z" fill="#f6f9f9"/>
                    <path d="m304.044 355.658h-15.3c-13.49 0-24.43-10.94-24.43-24.44v-50.89c0-13.49 10.94-24.43 24.43-24.43h15.3c-13.5 0-24.44 10.94-24.44 24.43v50.89c0 13.5 10.94 24.44 24.44 24.44z" fill="#dddaec"/>
                </g>
            </g>
        </g>
        <g>
            <path d="m458.61 0h-405.22c-29.439 0-53.39 23.951-53.39 53.39v405.22c0 29.439 23.951 53.39 53.39 53.39h405.22c29.439 0 53.39-23.951 53.39-53.39v-77.42c0-4.142-3.358-7.5-7.5-7.5s-7.5 3.358-7.5 7.5v16.41h-84.4v-84.4h84.4v37.99c0 4.142 3.358 7.5 7.5 7.5s7.5-3.358 7.5-7.5v-297.8c0-29.439-23.951-53.39-53.39-53.39zm-244.81 99.4v-84.4h84.4v84.4zm-99.4 0v-84.4h84.4v84.4zm183.8 313.2v84.4h-84.4v-84.4zm99.4 0v84.4h-84.4v-84.4zm-198.8 84.4h-84.4v-84.4h84.4zm-183.8-99.4v-84.4h84.4v84.4zm84.4-198.8h-23.91c-4.142 0-7.5 3.358-7.5 7.5s3.358 7.5 7.5 7.5h23.91v84.4h-84.4v-84.4h30.49c4.142 0 7.5-3.358 7.5-7.5s-3.358-7.5-7.5-7.5h-30.49v-84.4h84.4zm213.8-183.8h84.4v84.4h-84.4zm99.4 99.4h84.4v84.4h-84.4zm84.4-61.01v46.01h-84.4v-84.4h46.01c21.168 0 38.39 17.222 38.39 38.39zm-443.61-38.39h46.01v84.4h-84.4v-46.01c0-21.168 17.222-38.39 38.39-38.39zm-38.39 443.61v-46.01h84.4v84.4h-46.01c-21.168 0-38.39-17.222-38.39-38.39zm482 0c0 21.168-17.222 38.39-38.39 38.39h-46.01v-84.4h84.4zm-382.6-61.01v-283.2h283.2v283.2zm298.2-99.4v-84.4h84.4v84.4z"/>
            <path d="m223.25 148.842h-50.889c-17.61 0-31.937 14.327-31.937 31.937v50.889c0 17.61 14.327 31.937 31.937 31.937h50.889c17.61 0 31.937-14.327 31.937-31.937v-50.889c0-17.61-14.327-31.937-31.937-31.937zm16.937 82.826c0 9.339-7.598 16.937-16.937 16.937h-50.889c-9.339 0-16.937-7.598-16.937-16.937v-50.889c0-9.339 7.598-16.937 16.937-16.937h50.889c9.339 0 16.937 7.598 16.937 16.937z"/>
            <path d="m197.805 198.223c-4.142 0-7.5 3.358-7.5 7.5v.5c0 4.142 3.358 7.5 7.5 7.5s7.5-3.358 7.5-7.5v-.5c0-4.142-3.358-7.5-7.5-7.5z"/>
            <path d="m221.042 174.987c-4.142 0-7.5 3.358-7.5 7.5v.5c0 4.142 3.358 7.5 7.5 7.5s7.5-3.358 7.5-7.5v-.5c0-4.142-3.358-7.5-7.5-7.5z"/>
            <path d="m174.569 221.46c-4.142 0-7.5 3.358-7.5 7.5v.5c0 4.142 3.358 7.5 7.5 7.5s7.5-3.358 7.5-7.5v-.5c0-4.142-3.358-7.5-7.5-7.5z"/>
            <path d="m339.639 248.391h-50.889c-17.61 0-31.937 14.327-31.937 31.937v50.889c0 17.61 14.327 31.937 31.937 31.937h50.889c17.61 0 31.937-14.327 31.937-31.937v-50.889c0-17.61-14.327-31.937-31.937-31.937zm16.937 82.826c0 9.339-7.598 16.937-16.937 16.937h-50.889c-9.339 0-16.937-7.598-16.937-16.937v-50.889c0-9.339 7.598-16.937 16.937-16.937h50.889c9.339 0 16.937 7.598 16.937 16.937z"/>
            <path d="m314.195 297.772c-4.142 0-7.5 3.358-7.5 7.5v.5c0 4.142 3.358 7.5 7.5 7.5s7.5-3.358 7.5-7.5v-.5c0-4.142-3.358-7.5-7.5-7.5z"/>
            <path d="m337.431 290.036c4.142 0 7.5-3.358 7.5-7.5v-.5c0-4.142-3.358-7.5-7.5-7.5s-7.5 3.358-7.5 7.5v.5c0 4.142 3.358 7.5 7.5 7.5z"/>
            <path d="m290.958 321.009c-4.142 0-7.5 3.358-7.5 7.5v.5c0 4.142 3.358 7.5 7.5 7.5s7.5-3.358 7.5-7.5v-.5c0-4.142-3.358-7.5-7.5-7.5z"/>
            <path d="m337.681 321.259h-.5c-4.142 0-7.5 3.358-7.5 7.5s3.358 7.5 7.5 7.5h.5c4.142 0 7.5-3.358 7.5-7.5s-3.358-7.5-7.5-7.5z"/>
            <path d="m291.208 274.786h-.5c-4.142 0-7.5 3.358-7.5 7.5s3.358 7.5 7.5 7.5h.5c4.142 0 7.5-3.358 7.5-7.5s-3.358-7.5-7.5-7.5z"/>
            <path d="m438.252 85.048h31.924c4.142 0 7.5-3.358 7.5-7.5s-3.358-7.5-7.5-7.5h-13.817l20.59-20.59c2.929-2.929 2.929-7.678 0-10.606-2.929-2.929-7.678-2.929-10.606 0l-20.59 20.59v-13.818c0-4.142-3.358-7.5-7.5-7.5s-7.5 3.358-7.5 7.5v31.924c-.001 4.142 3.357 7.5 7.499 7.5z"/>
            <path d="m40.533 54.454h30.594c4.142 0 7.5-3.358 7.5-7.5s-3.358-7.5-7.5-7.5h-30.594c-4.142 0-7.5 3.358-7.5 7.5s3.358 7.5 7.5 7.5z"/>
            <path d="m40.533 75.736h30.594c4.142 0 7.5-3.358 7.5-7.5s-3.358-7.5-7.5-7.5h-30.594c-4.142 0-7.5 3.358-7.5 7.5s3.358 7.5 7.5 7.5z"/>
            <path d="m452.224 480.767c15.137 0 27.453-12.315 27.453-27.453s-12.315-27.452-27.453-27.452-27.453 12.315-27.453 27.452 12.315 27.453 27.453 27.453zm0-39.905c6.866 0 12.453 5.586 12.453 12.452s-5.586 12.453-12.453 12.453-12.453-5.586-12.453-12.453 5.586-12.452 12.453-12.452z"/>
            <path d="m84.433 456.904h-6.467v-7.849h6.467c4.142 0 7.5-3.358 7.5-7.5s-3.358-7.5-7.5-7.5h-6.467v-6.467c0-4.142-3.358-7.5-7.5-7.5s-7.5 3.358-7.5 7.5v6.467h-7.849v-6.467c0-4.142-3.358-7.5-7.5-7.5s-7.5 3.358-7.5 7.5v6.467h-6.467c-4.142 0-7.5 3.358-7.5 7.5s3.358 7.5 7.5 7.5h6.467v7.849h-6.467c-4.142 0-7.5 3.358-7.5 7.5s3.358 7.5 7.5 7.5h6.467v6.467c0 4.142 3.358 7.5 7.5 7.5s7.5-3.358 7.5-7.5v-6.467h7.849v6.467c0 4.142 3.358 7.5 7.5 7.5s7.5-3.358 7.5-7.5v-6.467h6.467c4.142 0 7.5-3.358 7.5-7.5s-3.358-7.5-7.5-7.5zm-29.316 0v-7.849h7.849v7.849z"/>
        </g>
    </g>
</svg>