<svg id="Capa_1" enable-background="new 0 0 512 512" viewBox="0 0 512 512" height="100%" width="100%" xmlns="http://www.w3.org/2000/svg"><g><g fill="#565e75"><path d="m147.416 405.269c-13.32-4.219-20.699-18.436-16.48-31.757 6.046-19.089 34.879-77.357 86.309-94.128 13.283-4.331 27.564 2.925 31.896 16.21 4.332 13.284-2.925 27.564-16.21 31.896-26.735 8.718-48.537 44.811-53.758 61.299-4.206 13.283-18.406 20.712-31.757 16.48z"/><path d="m427.366 395.719c-5.671-11.332-24.71-36.692-56.174-51.557-12.632-5.969-18.036-21.049-12.067-33.682 5.968-12.633 21.044-18.035 33.682-12.068 41.029 19.385 68.634 52.336 79.808 74.664 6.253 12.495 1.192 27.693-11.303 33.947-12.545 6.276-27.718 1.142-33.946-11.304z"/><path d="m213.477 249.251c-15.425-15.962-34.026-31.258-65.411-35.071-13.87-1.685-23.749-14.296-22.063-28.166 1.685-13.871 14.308-23.743 28.165-22.063 47.442 5.764 76.061 29.823 95.694 50.139 9.71 10.048 9.435 26.064-.611 35.774-10.045 9.706-26.062 9.437-35.774-.613z"/><path d="m353.246 249.863c-10.047-9.71-10.321-25.726-.611-35.774 24.574-25.428 57.455-40.803 97.731-45.697 13.873-1.682 26.482 8.193 28.165 22.063 1.686 13.87-8.193 26.48-22.063 28.166-28.857 3.506-50.919 13.525-67.448 30.63-9.708 10.046-25.725 10.323-35.774.612z"/></g><path d="m397.386 182.734c-17.059 7.717-32.022 18.184-44.751 31.355-9.71 10.048-9.436 26.064.611 35.774 10.049 9.711 26.065 9.434 35.773-.611 11.845-12.256 26.548-20.855 44.538-26.046-9.139-15.633-21.501-29.327-36.171-40.472z" fill="#404656"/><path d="m442.391 333.15c-13.195-12.924-29.828-25.404-49.583-34.738-12.639-5.967-27.714-.565-33.682 12.068-5.969 12.633-.566 27.713 12.067 33.682 18.869 8.915 33.264 21.602 42.992 32.777 12.16-12.637 21.838-27.411 28.206-43.789z" fill="#404656"/><path d="m217.245 279.385c-25.561 8.335-45.538 26.921-59.912 45.853 5.746 18.292 15.547 34.813 28.346 48.875 9.515-17.617 26.958-40.004 47.253-46.622 13.285-4.332 20.542-18.612 16.21-31.896-4.333-13.286-18.613-20.541-31.897-16.21z" fill="#404656"/><path d="m171.085 219.649c18.272 6.744 31.175 17.995 42.393 29.602 9.711 10.05 25.728 10.319 35.774.611 10.047-9.71 10.321-25.726.611-35.774-10.799-11.175-24.327-23.476-42.201-33.248-14.645 10.635-27.127 23.761-36.577 38.809z" fill="#404656"/><ellipse cx="301.249" cy="287.299" fill="#565e75" rx="119.7" ry="106.406"/><g><g fill="#eda1ab"><ellipse cx="221.692" cy="307.454" rx="29.355" ry="23.377"/><ellipse cx="380.806" cy="307.454" rx="29.355" ry="23.377"/></g><g fill="#fff"><path d="m238.8 292.451c-4.143 0-7.5-3.358-7.5-7.5v-12c0-4.142 3.357-7.5 7.5-7.5s7.5 3.358 7.5 7.5v12c0 4.142-3.358 7.5-7.5 7.5z"/><path d="m363.697 292.451c-4.143 0-7.5-3.358-7.5-7.5v-12c0-4.142 3.357-7.5 7.5-7.5s7.5 3.358 7.5 7.5v12c0 4.142-3.357 7.5-7.5 7.5z"/><path d="m301.249 299.594c-8.477 0-16.54-3.672-22.118-10.074-2.722-3.123-2.395-7.86.728-10.582 3.122-2.721 7.86-2.396 10.581.727 2.729 3.132 6.669 4.928 10.809 4.928s8.08-1.796 10.81-4.928c2.72-3.123 7.458-3.448 10.581-.727s3.449 7.458.728 10.582c-5.579 6.402-13.641 10.074-22.119 10.074z"/></g></g><path d="m504.5 0h-441.26c-34.871 0-63.24 28.37-63.24 63.241v7.738c0 4.142 3.357 7.5 7.5 7.5s7.5-3.358 7.5-7.5v-7.738c0-10.599 3.444-20.404 9.26-28.373l72.205 72.205c-32.35-2.093-63.576 11.033-81.466 30.535v-31.686c0-4.142-3.357-7.5-7.5-7.5s-7.5 3.358-7.5 7.5v398.578c0 4.142 3.357 7.5 7.5 7.5s7.5-3.358 7.5-7.5v-41.758c3.644-21.952 18.57-46.056 42.099-67.942 21.184-19.705 47.845-36.374 77.929-48.891-5.595 10.278-9.334 19.313-11.242 25.338-5.46 17.242 4.125 35.711 21.365 41.171 17.291 5.481 35.706-4.1 41.173-21.365 2.363-7.462 8.566-19.514 17.289-30.833 23.352 25.03 58.451 40.984 97.637 40.984 35.802 0 68.191-13.319 91.329-34.708 14.237 11.529 22.414 23.164 25.441 27.963 2.21 3.503 6.84 4.552 10.346 2.342 3.503-2.21 4.552-6.841 2.342-10.345-3.373-5.346-12.335-18.144-27.736-30.844 7.798-9.288 14.044-19.675 18.402-30.849 22.312 17.298 37.469 37.545 44.536 51.669 5.657 11.303-2.007 24.783-14.584 25.723-4.13.309-7.228 3.908-6.92 8.038.309 4.124 3.898 7.228 8.039 6.92 23.184-1.733 37.303-26.565 26.879-47.394-10.654-21.29-30.373-43.508-53.304-60.23 1.59-7.18 2.431-14.599 2.431-22.19 0-17.556-4.462-34.196-12.418-49.062 11.669-6.214 25.265-10.217 41.342-12.17 17.993-2.187 30.793-18.517 28.604-36.515-2.163-17.822-18.319-30.583-36.129-28.642-12.689-45.769 14.523-108.018 43.213-145.91h11.438c4.143 0 7.5-3.358 7.5-7.5s-3.357-7.5-7.5-7.5zm-87.896 15c-50.11 24.947-104.552 78.568-120.242 158.485-22.446.763-43.42 6.754-61.443 16.658-4.893-3.925-9.891-7.522-15.014-10.771-3.669-35.264 2.533-72.54 17.188-102.821 15.557-32.144 39.239-53.96 66.755-61.55h112.756zm-195.162 183.673c-9.958 7.205-18.684 15.721-25.842 25.259-13.984-9.445-29.31-15.093-46.629-17.198-9.765-1.186-16.709-10.049-15.523-19.816 1.184-9.741 10.076-16.71 19.816-15.523 25.451 3.093 47.845 12.049 68.178 27.278zm-52.607-183.673h100.175c-47.144 32.294-67.878 98.379-64.815 155.653-10.969-5.276-22.497-9.163-34.668-11.732l-43.868-43.868c-7.51-23.646-3.843-51.754 9.73-73.79 9.17-14.886 21.339-24.426 33.446-26.263zm-133.968 9.261c7.969-5.817 17.774-9.261 28.373-9.261h74.367c-19.492 17.88-32.629 49.1-30.535 81.466zm-19.867 144.574c1.837-12.107 11.378-24.275 26.265-33.445 22.037-13.573 50.143-17.24 73.789-9.729l31.004 31.004c-14.131 2.212-25.692 13.567-27.5 28.444-.936 7.701.839 15.314 5.007 21.746-42.008 7.071-84.693 27.25-108.565 62.102zm0 253.448v-118.442c12.258-44.387 62.089-77.953 124.675-84.031 2.389.884 4.895 1.501 7.487 1.815 15.197 1.847 28.148 6.613 40.262 14.873-8.552 15.303-13.375 32.556-13.375 50.801 0 2.874.122 5.723.357 8.544-10.242 8.901-18.949 18.981-26.14 28.98-51.804 17.897-105.615 51.635-133.266 97.46zm157.023-35.758c-2.944 9.299-12.895 14.588-22.342 11.594-9.356-2.963-14.559-12.986-11.595-22.343 3.246-10.252 16.117-39.1 39.365-62.274 3.307 12.531 8.93 24.268 16.443 34.829-11.02 13.573-18.819 28.557-21.871 38.194zm129.226-.32c-61.867 0-112.2-44.369-112.2-98.906s50.333-98.906 112.2-98.906 112.2 44.369 112.2 98.906-50.333 98.906-112.2 98.906zm150.021-210.368c9.734-1.183 18.634 5.781 19.816 15.523 1.188 9.763-5.755 18.629-15.521 19.815-18.371 2.233-33.992 6.937-47.517 14.318-7.092-9.793-15.813-18.556-25.822-25.973 19.443-12.497 42.601-20.47 69.044-23.683zm-16.321-12.606c-25.236 4.84-47.526 14.024-66.456 27.424-16.76-9.385-36.121-15.375-56.878-16.881 11.104-53.061 39.655-89.189 62.253-110.476 27.196-25.62 60.372-43.638 88.869-48.298h11.811c-29.263 42.444-51.467 101.901-39.599 148.231z"/></g></svg>