<?xml version="1.0" encoding="iso-8859-1"?>
<!-- Generator: Adobe Illustrator 19.0.0, SVG Export Plug-In . SVG Version: 6.00 Build 0)  -->
<svg version="1.1" id="Capa_1" xmlns="http://www.w3.org/2000/svg" xmlns:xlink="http://www.w3.org/1999/xlink" x="0px" y="0px"
	 viewBox="0 0 512.002 512.002" style="enable-background:new 0 0 512.002 512.002;" xml:space="preserve"
	 height="100%" width="100%" preserveAspectRatio="xMidYMid meet">
<path id="SVGCleanerId_0" style="fill:#E38892;" d="M240.356,77.052C182.932,33.863,100.881,38.643,48.908,91.393
	c-56.445,57.289-54.794,149.912,2.074,206.781l138.423,138.422c36.756,36.756,96.349,36.756,133.106,0l138.422-138.422
	c56.869-56.869,58.519-149.492,2.074-206.78c-51.973-52.75-134.023-57.53-191.448-14.341
	C262.334,83.989,249.581,83.989,240.356,77.052z"/>
<g>
	<path id="SVGCleanerId_0_1_" style="fill:#E38892;" d="M240.356,77.052C182.932,33.863,100.881,38.643,48.908,91.393
		c-56.445,57.289-54.794,149.912,2.074,206.781l138.423,138.422c36.756,36.756,96.349,36.756,133.106,0l138.422-138.422
		c56.869-56.869,58.519-149.492,2.074-206.78c-51.973-52.75-134.023-57.53-191.448-14.341
		C262.334,83.989,249.581,83.989,240.356,77.052z"/>
</g>
<g>
	<ellipse style="fill:#FFFFFF;" cx="161.273" cy="197.205" rx="34.937" ry="27.823"/>
	<ellipse style="fill:#FFFFFF;" cx="350.646" cy="197.205" rx="34.937" ry="27.823"/>
</g>
<path style="fill:#D66274;" d="M255.957,304.212c-77.128,0-87.429,42.217-171.036,27.901l104.484,104.483
	c36.756,36.756,96.349,36.756,133.106,0l104.483-104.483C343.387,346.429,333.086,304.212,255.957,304.212z"/>
<path style="opacity:0.15;fill:#812B2F;enable-background:new    ;" d="M163.842,48.333c-41.251-3.107-83.569,11.226-114.934,43.061
	c-56.446,57.288-54.795,149.911,2.073,206.78l138.423,138.422c36.756,36.756,96.349,36.756,133.106,0L442.067,317.04
	C172.312,419.503,85.985,163.133,163.842,48.333z"/>
<path d="M306.153,166.926c0,4.142,3.358,7.501,7.501,7.501s7.5-3.358,7.5-7.501c0-5.033,4.095-9.129,9.13-9.129
	c5.033,0,9.129,4.095,9.129,9.129c0,4.142,3.358,7.501,7.5,7.501s7.5-3.358,7.5-7.501c0-13.306-10.825-24.13-24.13-24.13
	C316.978,142.795,306.153,153.62,306.153,166.926z M143.111,55.727c33.287-2.323,66.22,7.375,92.736,27.319
	c11.841,8.905,28.379,8.905,40.219,0c26.518-19.943,59.45-29.646,92.737-27.319c33.612,2.35,65.17,16.886,88.86,40.93
	c8.22,8.344,15.321,17.674,21.106,27.734c2.064,3.591,6.649,4.829,10.241,2.763c3.591-2.064,4.828-6.649,2.763-10.241
	c-6.423-11.171-14.305-21.528-23.425-30.784c-26.257-26.65-61.238-42.761-98.5-45.366c-36.888-2.581-73.396,8.18-102.8,30.294
	c-6.531,4.912-15.655,4.912-22.185,0c-29.404-22.113-65.907-32.869-102.801-30.294c-37.261,2.605-72.242,18.716-98.5,45.366
	c-58.901,59.78-57.953,157.282,2.113,217.347l83.625,83.625c1.464,1.464,3.384,2.197,5.303,2.197c1.92,0,3.839-0.733,5.303-2.197
	c2.929-2.929,2.929-7.679,0-10.608L56.286,292.87c-54.26-54.26-55.173-142.28-2.035-196.213
	C77.941,72.614,109.499,58.078,143.111,55.727z M267.943,181.435c-3.026,3.472-7.395,5.463-11.986,5.463
	c-4.59,0-8.96-1.991-11.986-5.463c-2.722-3.123-7.459-3.448-10.582-0.726c-3.123,2.722-3.448,7.459-0.726,10.582
	c5.876,6.742,14.367,10.609,23.295,10.609s17.417-3.866,23.294-10.609c2.722-3.122,2.396-7.861-0.726-10.582
	C275.404,177.987,270.664,178.311,267.943,181.435z M157.502,166.926c0,4.142,3.358,7.501,7.501,7.501c4.142,0,7.5-3.358,7.5-7.501
	c0-5.033,4.095-9.129,9.129-9.129c5.034,0,9.13,4.095,9.13,9.129c0,4.142,3.358,7.501,7.5,7.501s7.501-3.358,7.501-7.501
	c0-13.306-10.825-24.13-24.131-24.13S157.502,153.62,157.502,166.926z M506.164,151.081c-1.128-3.985-5.273-6.3-9.26-5.173
	c-3.985,1.128-6.302,5.274-5.173,9.26c13.828,48.843-0.005,101.608-36.1,137.703L317.207,431.292
	c-33.772,33.773-88.726,33.773-122.498,0l-29.548-29.549c-2.928-2.929-7.678-2.929-10.607,0s-2.929,7.679,0,10.607l29.548,29.549
	c19.811,19.811,45.834,29.716,71.857,29.716s52.045-9.906,71.857-29.716l138.423-138.423
	C506.172,263.543,521.47,205.147,506.164,151.081z"/>
<g>
</g>
<g>
</g>
<g>
</g>
<g>
</g>
<g>
</g>
<g>
</g>
<g>
</g>
<g>
</g>
<g>
</g>
<g>
</g>
<g>
</g>
<g>
</g>
<g>
</g>
<g>
</g>
<g>
</g>
</svg>
